# xmcd CD database file generated by Grip 3.0.5
# 
# Track frame offsets:
#       150
#       18567
#       35120
#       50252
#       64857
#       78255
#       98030
#       114579
#       131820
#       152805
#       174985
#       199117
# 
# Disc length: 2930 seconds
# 
# Revision: 4
# Processed by: cddbd v1.4PL0 Copyright (c) Steve Scherf et al.
# Submitted via: Grip 3.0.5
# 
DISCID=9e0b700c
DTITLE=G. Love and Special Sauce - Coast To Coast Motel
DYEAR=1995
DGENRE=Blues
TTITLE0=Sweet Sugar Mama
TTITLE1=Leaving the City
TTITLE2=Nancy
TTITLE3=Kiss and Tell
TTITLE4=Chains #3
TTITLE5=Sometimes
TTITLE6=Everybody
TTITLE7=Soda Pop
TTITLE8=Bye Bye Baby
TTITLE9=Tommorrow Night
TTITLE10=Small Fish
TTITLE11=Coming Home
EXTD=
EXTT0=
EXTT1=
EXTT2=
EXTT3=
EXTT4=
EXTT5=
EXTT6=
EXTT7=
EXTT8=
EXTT9=
EXTT10=
EXTT11=
PLAYORDER=
